<svg xmlns="http://www.w3.org/2000/svg" width="25" height="25" viewBox="0 0 25 25">
  <g id="Group_1" data-name="Group 1" transform="translate(-1165 -491)">
    <rect id="Rectangle_1" data-name="Rectangle 1" width="25" height="25" transform="translate(1165 491)" fill="none"/>
    <path id="account" d="M5,17.85a10.086,10.086,0,0,1,3.138-2.088A9.742,9.742,0,0,1,12,15a9.749,9.749,0,0,1,3.863.762A10.089,10.089,0,0,1,19,17.85V5H5ZM12,13A3.5,3.5,0,1,0,8.5,9.5,3.5,3.5,0,0,0,12,13ZM5,21a2,2,0,0,1-2-2V5A2,2,0,0,1,5,3H19a2,2,0,0,1,2,2V19a2,2,0,0,1-2,2Zm2-2H17v-.25a7.3,7.3,0,0,0-2.325-1.312,8.388,8.388,0,0,0-5.35,0A7.3,7.3,0,0,0,7,18.75Zm5-8a1.5,1.5,0,1,1,1.062-.438A1.444,1.444,0,0,1,12,11ZM12,11.425Z" transform="translate(1166 492)"/>
  </g>
</svg>
