<svg xmlns="http://www.w3.org/2000/svg" width="25" height="25" viewBox="0 0 25 25">
  <g id="Group_2" data-name="Group 2" transform="translate(-1165 -491)">
    <g id="Group_1" data-name="Group 1">
      <rect id="Rectangle_1" data-name="Rectangle 1" width="25" height="25" transform="translate(1165 491)" fill="none"/>
    </g>
    <path id="add" d="M18,14V11H15V9h3V6h2V9h3v2H20v3ZM9,12a3.852,3.852,0,0,1-2.825-1.175A3.852,3.852,0,0,1,5,8,3.852,3.852,0,0,1,6.175,5.175,3.852,3.852,0,0,1,9,4a3.852,3.852,0,0,1,2.825,1.175A3.852,3.852,0,0,1,13,8a3.852,3.852,0,0,1-1.175,2.825A3.852,3.852,0,0,1,9,12ZM1,20V17.2a2.983,2.983,0,0,1,1.6-2.65,14.867,14.867,0,0,1,3.15-1.163,13.84,13.84,0,0,1,6.5,0A14.866,14.866,0,0,1,15.4,14.55,2.983,2.983,0,0,1,17,17.2V20Zm2-2H15v-.8a.943.943,0,0,0-.137-.5.977.977,0,0,0-.363-.35,13.056,13.056,0,0,0-2.725-1.013,11.594,11.594,0,0,0-5.55,0A13.056,13.056,0,0,0,3.5,16.35a.969.969,0,0,0-.362.35A.937.937,0,0,0,3,17.2Zm6-8A2,2,0,1,0,7,8,2.006,2.006,0,0,0,9,10ZM9,8ZM9,15Z" transform="translate(1166 491)"/>
  </g>
</svg>
