<svg xmlns="http://www.w3.org/2000/svg" width="25" height="25" viewBox="0 0 25 25">
  <g id="Group_1" data-name="Group 1" transform="translate(-1153 -483)">
    <rect id="Rectangle_1" data-name="Rectangle 1" width="25" height="25" transform="translate(1153 483)" fill="none"/>
    <path id="credit_card_FILL0_wght400_GRAD0_opsz24" d="M22,6V18a2,2,0,0,1-2,2H4a1.925,1.925,0,0,1-1.412-.587A1.927,1.927,0,0,1,2,18V6a1.923,1.923,0,0,1,.588-1.412A1.923,1.923,0,0,1,4,4H20a2.006,2.006,0,0,1,2,2ZM4,8H20V6H4Zm0,4v6H20V12ZM4,18Z" transform="translate(1154 484)"/>
  </g>
</svg>
