<svg xmlns="http://www.w3.org/2000/svg" width="25" height="24.272" viewBox="0 0 25 24.272">
  <g id="Group_1" data-name="Group 1" transform="translate(-1142 -474.364)">
    <rect id="Rectangle_1" data-name="Rectangle 1" width="25" height="24.272" transform="translate(1142 474.364)" fill="none"/>
    <path id="Overview" d="M10,13.818a3.665,3.665,0,1,0-2.608-1.073A3.665,3.665,0,0,0,10,13.818Zm0-1.473a2.2,2.2,0,1,1,1.565-.644A2.2,2.2,0,0,1,10,12.345Zm0,3.927a9.634,9.634,0,0,1-9-6.136,9.668,9.668,0,0,1,18,0A9.634,9.634,0,0,1,10,16.272ZM10,10.136Zm0,4.5a7.809,7.809,0,0,0,4.245-1.217A7.994,7.994,0,0,0,17.2,10.136a8,8,0,0,0-2.955-3.283A7.813,7.813,0,0,0,10,5.636,7.813,7.813,0,0,0,5.755,6.853,8,8,0,0,0,2.8,10.136a7.994,7.994,0,0,0,2.955,3.283A7.809,7.809,0,0,0,10,14.636Z" transform="translate(1145 476.364)" fill="#fff"/>
  </g>
</svg>
